<svg width="45" height="45" viewBox="0 0 45 45" fill="none" xmlns="http://www.w3.org/2000/svg">
<path d="M5.625 20.625C5.625 13.5539 5.625 10.0184 7.82169 7.82169C10.0184 5.625 13.5539 5.625 20.625 5.625H24.375C31.446 5.625 34.9817 5.625 37.1782 7.82169C39.375 10.0184 39.375 13.5539 39.375 20.625V24.375C39.375 31.446 39.375 34.9817 37.1782 37.1782C34.9817 39.375 31.446 39.375 24.375 39.375H20.625C13.5539 39.375 10.0184 39.375 7.82169 37.1782C5.625 34.9817 5.625 31.446 5.625 24.375V20.625Z" stroke="#33363F" stroke-width="5"/>
<path d="M30.9375 16.875C32.4908 16.875 33.75 15.6158 33.75 14.0625C33.75 12.5092 32.4908 11.25 30.9375 11.25C29.3842 11.25 28.125 12.5092 28.125 14.0625C28.125 15.6158 29.3842 16.875 30.9375 16.875Z" fill="#33363F"/>
<path d="M22.5 28.125C25.6066 28.125 28.125 25.6066 28.125 22.5C28.125 19.3934 25.6066 16.875 22.5 16.875C19.3934 16.875 16.875 19.3934 16.875 22.5C16.875 25.6066 19.3934 28.125 22.5 28.125Z" stroke="#33363F" stroke-width="5"/>
</svg>
