<svg width="35" height="35" viewBox="0 0 35 35" fill="none" xmlns="http://www.w3.org/2000/svg">
<path d="M30.625 11.6665L25.4322 14.5514C22.5371 16.1598 21.0895 16.964 19.5565 17.2793C18.1997 17.5583 16.8003 17.5583 15.4435 17.2793C13.9105 16.964 12.463 16.1598 9.56783 14.5514L4.375 11.6665M9.04167 27.7082H25.9583C27.5918 27.7082 28.4086 27.7082 29.0325 27.3903C29.5813 27.1107 30.0275 26.6644 30.3071 26.1157C30.625 25.4918 30.625 24.675 30.625 23.0415V11.9582C30.625 10.3247 30.625 9.50794 30.3071 8.88403C30.0275 8.33522 29.5813 7.88903 29.0325 7.60941C28.4086 7.2915 27.5918 7.2915 25.9583 7.2915H9.04167C7.40819 7.2915 6.59143 7.2915 5.96753 7.60941C5.41871 7.88903 4.97252 8.33522 4.6929 8.88403C4.375 9.50794 4.375 10.3247 4.375 11.9582V23.0415C4.375 24.675 4.375 25.4918 4.6929 26.1157C4.97252 26.6644 5.41871 27.1107 5.96753 27.3903C6.59143 27.7082 7.40817 27.7082 9.04167 27.7082Z" stroke="black" stroke-width="2.5" stroke-linecap="round" stroke-linejoin="round"/>
</svg>
