<svg width="45" height="45" viewBox="0 0 45 45" fill="none" xmlns="http://www.w3.org/2000/svg">
<path fill-rule="evenodd" clip-rule="evenodd" d="M13.5892 7.63146C15.8058 4.99944 18.9459 3.75 22.5 3.75C26.136 3.75 29.2575 5.22026 31.4323 7.89979C33.3641 10.2799 34.4572 13.4946 34.6548 17.2316C34.7096 17.2396 34.7671 17.248 34.8279 17.2568L34.8665 17.2624C35.184 17.3084 35.5648 17.3644 35.9606 17.4411C37.4257 17.7248 39.9245 18.4407 40.7853 21.1236C41.2175 22.4711 41.0004 23.7204 40.2457 24.7099C39.594 25.5643 38.6634 26.0569 37.9995 26.3559C37.668 26.5054 37.3395 26.6331 37.0627 26.7384C37.7103 28.4936 38.8389 30.2996 40.0876 31.9354C41.2636 33.4759 40.9526 35.4291 40.3447 36.7012C39.7359 37.9757 38.4185 39.4331 36.5032 39.5162C35.4193 39.5633 34.2811 39.6743 33.1483 39.8803C32.6366 39.9735 32.0326 40.1786 31.2823 40.4886C30.8349 40.6734 30.4245 40.8563 29.9816 41.0537C29.6296 41.2104 29.2571 41.3764 28.8288 41.5599C27.0646 42.3159 24.8996 43.125 22.5 43.125C20.1001 43.125 17.9351 42.3159 16.1709 41.5599C15.7428 41.3764 15.3702 41.2104 15.0183 41.0537C14.5753 40.8563 14.1649 40.6734 13.7175 40.4886C12.9672 40.1786 12.3633 39.9735 11.8516 39.8803C10.7187 39.6743 9.58053 39.5633 8.49659 39.5162C6.58128 39.4331 5.26383 37.9757 4.65507 36.7012C4.04729 35.4291 3.73613 33.4759 4.91219 31.9354C6.16883 30.2893 7.3037 28.4707 7.94926 26.7052C7.69913 26.6046 7.40575 26.484 7.1083 26.3449C6.45877 26.0409 5.57776 25.5561 4.92837 24.7423C4.20104 23.8309 3.88128 22.6556 4.16528 21.3094C4.7731 18.4281 7.48387 17.7081 8.91742 17.439C9.32442 17.3627 9.71905 17.3069 10.0516 17.2608C10.0738 17.2577 10.0956 17.2547 10.1171 17.2517C10.1966 17.2407 10.2711 17.2303 10.3414 17.2205C10.5278 13.2355 11.6133 9.97761 13.5892 7.63146ZM16.4575 10.0471C15.0287 11.7436 14.0624 14.4725 14.0624 18.4821V18.6793L14.0214 18.8721C13.8125 19.8547 13.0581 20.313 12.6833 20.4894C12.2883 20.6754 11.8637 20.7677 11.5635 20.8234C11.271 20.8777 10.9451 20.9229 10.6533 20.9632C10.6242 20.9672 10.5954 20.9713 10.5669 20.9753C10.2344 21.0214 9.91917 21.0666 9.60922 21.1247C8.17493 21.3939 7.90477 21.7504 7.83453 22.0834C7.78454 22.3204 7.8277 22.368 7.85257 22.3954C7.85508 22.3982 7.85945 22.4032 7.85945 22.4032C7.9594 22.5285 8.1994 22.7151 8.69746 22.9481C8.93078 23.0573 9.17609 23.1572 9.449 23.2663C9.47065 23.2751 9.4928 23.2839 9.51535 23.2929C9.75295 23.388 10.0365 23.5012 10.2871 23.6186C10.5324 23.7336 10.9438 23.9394 11.2905 24.2721C11.6954 24.6604 12.1864 25.4184 11.949 26.4163C11.2654 29.2884 9.54098 32.0516 7.8947 34.2084C7.88873 34.2195 7.86419 34.2748 7.86466 34.4055C7.8653 34.5844 7.9162 34.8283 8.03877 35.0848C8.16121 35.3411 8.32111 35.5387 8.46575 35.6574C8.58477 35.7551 8.65197 35.7686 8.66078 35.7699C9.88156 35.8228 11.1927 35.9488 12.5232 36.1911C13.4296 36.3561 14.3246 36.6819 15.1497 37.023C15.6045 37.2109 16.1271 37.4428 16.6345 37.668C16.9892 37.8253 17.3365 37.9796 17.6481 38.1131C19.3327 38.835 20.9058 39.375 22.5 39.375C24.0941 39.375 25.667 38.835 27.3517 38.1131C27.6633 37.9796 28.0106 37.8253 28.3653 37.668C28.8727 37.4428 29.3953 37.2109 29.8501 37.023C30.6751 36.6819 31.5703 36.3561 32.4766 36.1911C33.8071 35.9488 35.1183 35.8228 36.339 35.7699C36.348 35.7684 36.4151 35.7551 36.5341 35.6574C36.6787 35.5387 36.8386 35.3411 36.9611 35.0848C37.0835 34.8283 37.1345 34.5844 37.1351 34.4055C37.1358 34.2311 37.0918 34.1912 37.107 34.2109C35.4601 32.0539 33.7346 29.2896 33.0508 26.4163C32.7969 25.3496 33.3774 24.5781 33.7764 24.2235C34.1311 23.9081 34.5489 23.712 34.8026 23.6004C35.0542 23.4896 35.3398 23.3814 35.5841 23.2888C35.615 23.277 35.6452 23.2656 35.6746 23.2545C35.96 23.1459 36.2175 23.0458 36.4591 22.9369C36.9641 22.7094 37.1805 22.5358 37.2549 22.4471C37.2523 22.4164 37.2433 22.359 37.2146 22.2692C37.0441 21.7378 36.5619 21.3773 35.2475 21.1226C34.9485 21.0647 34.647 21.0199 34.3282 20.9736C34.3044 20.97 34.2802 20.9666 34.2556 20.9631C33.974 20.9224 33.6553 20.8762 33.3688 20.82C33.0785 20.7632 32.6587 20.6674 32.2655 20.4718C31.8708 20.2755 31.1775 19.8086 30.9783 18.8721L30.9375 18.6793V18.4821C30.9375 14.8273 29.9861 12.0685 28.5206 10.263C27.086 8.4954 25.0515 7.5 22.5 7.5C19.8665 7.5 17.8502 8.39342 16.4575 10.0471Z" fill="black"/>
</svg>
