<svg width="45" height="45" viewBox="0 0 45 45" fill="none" xmlns="http://www.w3.org/2000/svg">
<path d="M23.4225 1.44702C25.7246 1.41187 28.0097 1.43015 30.2935 1.41187C30.3694 4.26796 31.5281 6.83858 33.3717 8.74265L33.3689 8.73983C35.3531 10.5272 37.935 11.6859 40.7813 11.8828L40.8206 11.8856V18.9675C38.1319 18.9 35.6035 18.2798 33.3239 17.2139L33.4392 17.2617C32.3367 16.7316 31.4044 16.1873 30.5185 15.5798L30.5916 15.6276C30.5747 20.7591 30.6085 25.8905 30.5564 31.0036C30.4116 33.6094 29.5453 35.9859 28.156 37.9701L28.1841 37.9266C25.861 41.2537 22.0978 43.4376 17.8186 43.567H17.7989C17.626 43.5755 17.4221 43.5797 17.2167 43.5797C14.7839 43.5797 12.51 42.9019 10.5722 41.7248L10.6285 41.7572C7.10159 39.6351 4.66877 36.0042 4.21877 31.7812L4.21315 31.7236C4.17799 30.8447 4.16112 29.9658 4.19627 29.1051C4.88534 22.3847 10.516 17.1858 17.3602 17.1858C18.1294 17.1858 18.8832 17.2519 19.6158 17.377L19.5371 17.3658C19.5722 19.9659 19.4667 22.5675 19.4667 25.1676C18.8719 24.9525 18.1856 24.8273 17.4699 24.8273C14.843 24.8273 12.6085 26.5064 11.7816 28.8506L11.7689 28.8928C11.5819 29.4933 11.4736 30.1837 11.4736 30.8981C11.4736 31.1878 11.4919 31.4747 11.5257 31.7559L11.5228 31.7222C11.9897 34.5994 14.4563 36.7706 17.4305 36.7706C17.5163 36.7706 17.6006 36.7692 17.685 36.765H17.6724C19.7297 36.7031 21.5156 35.5964 22.5253 33.9609L22.5394 33.9356C22.9149 33.4125 23.1722 32.7797 23.258 32.092L23.2594 32.0723C23.4352 28.9266 23.3649 25.7991 23.3817 22.6533C23.3986 15.5714 23.3649 8.5064 23.4169 1.4428L23.4225 1.44702Z" fill="black"/>
</svg>
