<svg width="54" height="45" viewBox="0 0 54 45" fill="none" xmlns="http://www.w3.org/2000/svg">
<g clip-path="url(#clip0_7_56)">
<path d="M0 0V12.3811C0 17.0514 3.015 20.1405 6.93 20.1405C8.8425 20.1405 10.5525 19.3378 11.7675 17.9514V19.8H14.49V0H11.745V12.2108C11.745 15.3486 9.7875 17.4649 7.245 17.4649C4.68 17.4649 2.745 15.3973 2.745 12.2108V0H0ZM16.5375 0V19.8H19.125V17.9757C19.749 18.6652 20.4947 19.2121 21.318 19.584C22.1413 19.9559 23.0253 20.1451 23.9175 20.1405C24.8362 20.147 25.747 19.9565 26.5971 19.5801C27.4473 19.2038 28.2201 18.649 28.8708 17.9478C29.5214 17.2466 30.0371 16.413 30.388 15.4951C30.7389 14.5772 30.918 13.5932 30.915 12.6C30.918 11.6068 30.7389 10.6228 30.388 9.70491C30.0371 8.787 29.5214 7.95337 28.8708 7.2522C28.2201 6.55103 27.4473 5.99623 26.5971 5.61986C25.747 5.2435 24.8362 5.05303 23.9175 5.05946C22.05 5.05946 20.385 5.88649 19.125 7.2V0H16.5375ZM38.835 5.08378C34.875 5.08378 31.9725 8.51351 31.9725 12.5757C31.9725 16.8811 35.055 20.0676 39.06 20.0676C41.49 20.0676 43.4925 18.9486 44.82 17.027L42.9075 15.4946C41.9175 16.9297 40.6125 17.6351 39.06 17.6351C36.81 17.6351 35.01 15.8595 34.65 13.5243H45.495V12.5757C45.495 8.29459 42.6825 5.08378 38.835 5.08378ZM52.7625 5.25405C51.3 5.25405 50.2425 5.98378 49.59 7.15135V5.37568H46.9575V19.8H49.6125V11.5541C49.6125 9.36486 50.8725 7.90541 52.5825 7.90541H53.685V5.25405H52.7625ZM38.7675 7.56487C40.7475 7.56487 42.39 9.04865 42.84 11.2622H34.695C35.1675 9.04865 36.81 7.56487 38.7675 7.56487ZM23.7375 7.61351C26.235 7.61351 28.305 9.8027 28.305 12.6C28.305 15.373 26.235 17.6351 23.7375 17.6351C23.1271 17.6384 22.5223 17.5101 21.9583 17.2576C21.3944 17.0051 20.8827 16.6336 20.4532 16.1647C20.0237 15.6959 19.685 15.1391 19.4569 14.527C19.2289 13.9149 19.116 13.2598 19.125 12.6C19.125 9.8027 21.195 7.61351 23.7375 7.61351ZM0 24.8351V44.6351H12.87V41.2541H3.4875V36.3405H12.6225V33.0568H3.4875V28.2162H12.87V24.8351H0ZM32.76 25.8568V30.0162H30.15V33.3243H32.76V41.1081C32.76 43.0784 34.0425 44.6351 36.36 44.6351H40.05V41.327H37.485C36.6975 41.327 36.2025 40.9378 36.2025 40.1595V33.3243H40.05V30.0162H36.2025V25.8568H32.76ZM20.97 29.6514C16.9425 29.6514 13.77 33.0568 13.77 37.3378C13.77 41.5946 16.9425 45 20.97 45C22.59 45 24.0975 44.3919 25.29 43.3216V44.6351H28.71V30.0162H25.29V31.3297C24.0795 30.2345 22.5485 29.6397 20.97 29.6514ZM47.34 29.6514C43.7625 29.6514 41.265 31.2324 41.265 34.3216C41.265 36.4378 42.6375 37.8243 45.6075 38.5054L48.87 39.3324C50.1525 39.6 50.49 39.9649 50.49 40.5486C50.49 41.4486 49.5 42.0324 47.9475 42.0324C45.99 42.0324 44.865 41.5459 44.415 39.9405H40.9725C41.4675 42.9811 43.56 45 47.835 45C51.75 45 54 42.9811 54 40.1595C54 38.1649 52.695 36.6811 49.9275 36.0486L47.025 35.3919C45.3375 35.0513 44.7975 34.6622 44.7975 34.0297C44.7975 33.1541 45.6075 32.6189 47.115 32.6189C48.735 32.6189 49.9275 33.1054 50.265 34.6622H53.685C53.505 31.6703 51.4575 29.6514 47.34 29.6514ZM21.2625 32.8622C23.535 32.8622 25.3575 34.8324 25.3575 37.3378C25.3575 39.8432 23.535 41.7892 21.2625 41.7892C20.7209 41.7924 20.1842 41.6795 19.6833 41.4569C19.1824 41.2344 18.7273 40.9066 18.3443 40.4926C17.9614 40.0786 17.6582 39.5866 17.4523 39.0451C17.2465 38.5036 17.142 37.9233 17.145 37.3378C17.145 34.8324 19.0125 32.8622 21.2625 32.8622Z" fill="black"/>
</g>
<defs>
<clipPath id="clip0_7_56">
<rect width="54" height="45" fill="white"/>
</clipPath>
</defs>
</svg>
